Coordinates
version=1
nRows=54
nColumns=12
inDegrees=yes

Units are S.I. units (second, meters, Newtons, ...)
Angles are in degrees

endheader
time	SC_y	SC_z	SC_x	AC_y	AC_z	AC_x	GH_y	GH_z	GH_yy	EL_x	PS_y
       0.0              -55.79          12.06          82.68           69.9         -3.143          6.733          157.0          15.82          121.3          36.84          130.5
   0.04782              -55.79          12.06          82.68           69.9         -3.143          6.734          157.0          15.83          121.2          36.85          130.5
   0.09564              -55.78          12.06          82.68          69.89         -3.143          6.736          157.0          15.83          121.2          36.86          130.5
    0.1435              -55.78          12.06          82.68          69.89         -3.143          6.737          157.0          15.84          121.2          36.86          130.4
    0.1913              -55.77          12.06          82.68          69.89         -3.143          6.738          157.0          15.85          121.1          36.87          130.4
    0.2391              -55.76          12.06          82.68          69.88         -3.143           6.74          157.0          15.85          121.1          36.88          130.4
    0.2869              -55.76          12.06          82.68          69.88         -3.143          6.741          157.0          15.86          121.1          36.89          130.4
    0.3347              -55.75          12.06          82.68          69.87         -3.142          6.743          157.0          15.87          121.0          36.89          130.4
    0.3826              -55.74          12.06          82.68          69.87         -3.142          6.745          157.0          15.88          121.0           36.9          130.3
    0.4304              -55.73          12.05          82.67          69.86         -3.142          6.747          157.0          15.89          120.9          36.91          130.3
    0.4782              -55.73          12.05          82.67          69.86         -3.142          6.749          157.0           15.9          120.9          36.92          130.3
     0.526              -55.72          12.05          82.67          69.85         -3.142          6.752          157.0          15.91          120.8          36.94          130.3
    0.5738              -55.71          12.05          82.67          69.85         -3.141          6.754          157.0          15.92          120.8          36.95          130.2
    0.6217              -55.69          12.05          82.67          69.84         -3.141          6.757          157.0          15.93          120.7          36.96          130.2
    0.6695              -55.68          12.05          82.67          69.83         -3.141           6.76          157.0          15.95          120.6          36.98          130.1
    0.7173              -55.67          12.04          82.67          69.82         -3.141          6.763          157.0          15.96          120.6          36.99          130.1
    0.7651              -55.65          12.04          82.66          69.81          -3.14          6.766          157.0          15.98          120.5          37.01          130.1
    0.8129              -55.64          12.04          82.66           69.8          -3.14           6.77          157.0           16.0          120.4          37.03          130.0
    0.8608              -55.62          12.04          82.66          69.79         -3.139          6.774          157.0          16.02          120.3          37.05          130.0
    0.9086               -55.6          12.03          82.66          69.78         -3.139          6.779          157.0          16.04          120.2          37.07          129.9
    0.9564              -55.58          12.03          82.65          69.77         -3.139          6.784          157.0          16.06          120.1           37.1          129.8
     1.004              -55.56          12.03          82.65          69.75         -3.138          6.789          157.0          16.08          119.9          37.12          129.8
     1.052              -55.53          12.02          82.65          69.74         -3.137          6.795          157.0          16.11          119.8          37.15          129.7
       1.1              -55.51          12.02          82.64          69.72         -3.137          6.802          156.9          16.14          119.6          37.19          129.6
     1.148              -55.48          12.02          82.64           69.7         -3.136          6.809          156.9          16.18          119.5          37.22          129.5
     1.196              -55.44          12.01          82.63          69.68         -3.135          6.818          156.9          16.22          119.3          37.27          129.4
     1.243               -55.4           12.0          82.63          69.66         -3.134          6.827          156.9          16.26          119.0          37.31          129.3
     1.291              -55.36           12.0          82.62          69.63         -3.133          6.837          156.9          16.31          118.8          37.36          129.1
     1.339              -55.31          11.99          82.61           69.6         -3.132          6.849          156.9          16.36          118.5          37.42          129.0
     1.387              -55.25          11.98          82.61          69.56         -3.131          6.862          156.9          16.43          118.2          37.49          128.8
     1.435              -55.19          11.97           82.6          69.52          -3.13          6.878          156.8           16.5          117.8          37.57          128.6
     1.482              -55.12          11.96          82.59          69.48         -3.128          6.895          156.8          16.58          117.4          37.65          128.3
      1.53              -55.03          11.95          82.57          69.42         -3.126          6.915          156.8          16.67          116.9          37.75          128.1
     1.578              -54.94          11.93          82.56          69.36         -3.124          6.939          156.7          16.78          116.4          37.87          127.8
     1.626              -54.82          11.92          82.54          69.29         -3.121          6.966          156.7          16.91          115.7          38.01          127.4
     1.674              -54.69           11.9          82.52           69.2         -3.118          6.999          156.7          17.06          114.9          38.17          127.0
     1.722              -54.53          11.87           82.5           69.1         -3.114          7.037          156.6          17.24          114.0          38.36          126.5
     1.769              -54.33          11.84          82.47          68.98          -3.11          7.083          156.5          17.46          112.9          38.59          125.8
     1.817               -54.1          11.81          82.44          68.84         -3.104          7.139          156.5          17.72          111.6          38.87          125.1
     1.865              -53.82          11.77           82.4          68.66         -3.098          7.207          156.4          18.04          110.0          39.21          124.2
     1.913              -53.47          11.71          82.35          68.44          -3.09          7.291          156.2          18.43          108.0          39.63          123.1
     1.961              -53.03          11.65          82.28          68.16          -3.08          7.396          156.1          18.93          105.5          40.16          121.7
     2.008              -52.48          11.57           82.2          67.81         -3.067          7.529          155.9          19.54          102.3          40.82          119.9
     2.056              -51.78          11.46           82.1          67.37         -3.051          7.697          155.6          20.33          98.35          41.66          117.7
     2.104              -50.88          11.33          81.97          66.81          -3.03          7.912          155.3          21.34          93.23          42.73          114.9
     2.152              -49.73          11.15          81.81          66.09         -3.004          8.188          154.9          22.63          86.67          44.11          111.2
       2.2              -48.26          10.93          81.59          65.16          -2.97           8.54          154.4          24.28          78.28          45.87          106.5
     2.248              -46.42          10.65          81.33           64.0         -2.927          8.984          153.8          26.35          67.73          48.08          100.6
     2.295              -44.17          10.32           81.0          62.58         -2.875          9.524          153.0          28.88          54.88          50.78          93.45
     2.343              -41.56          9.925          80.62          60.94         -2.815          10.15          152.1          31.81          39.99          53.91          85.13
     2.391              -38.73          9.501          80.22          59.16          -2.75          10.83          151.1          34.98          23.86           57.3          76.13
     2.439              -35.91          9.076          79.81          57.38         -2.685          11.51          150.1          38.15           7.73          60.68          67.13
     2.487               -33.3          8.685          79.43          55.74         -2.625          12.13          149.2          41.08         -7.165          63.81          58.82
     2.534              -31.05          8.347           79.1          54.33         -2.573          12.67          148.4          43.61         -20.02          66.51          51.64
